<svg xmlns="http://www.w3.org/2000/svg" version="1.1" xmlns:xlink="http://www.w3.org/1999/xlink" width="1000" height="1000"><g clip-path="url(#SvgjsClipPath1188)"><rect width="1000" height="1000" fill="#3098e3"></rect><g transform="matrix(22.580645161290324,0,0,22.580645161290324,150,161.29032258064512)"><svg xmlns="http://www.w3.org/2000/svg" width="31" height="30" viewBox="0 0 31 30" fill="none"><path d="M30.6562 25.9783C30.6562 23.9158 28.952 22.2658 26.8219 22.2658C24.6917 22.2658 22.9875 23.9158 22.9875 25.9783C22.9875 28.0408 24.6917 29.6908 26.8219 29.6908C28.952 29.6908 30.6562 27.9996 30.6562 25.9783Z" fill="#F9FAFB"></path><path d="M16.3841 0.0320609C7.13909 -0.545439 -0.486947 6.75581 0.0242959 15.7071C0.450331 23.0496 6.50004 29.0721 14.0835 29.6496C16.4267 29.8146 18.6847 29.4846 20.7296 28.7421L18.003 21.7708C16.8953 22.1833 15.7024 22.3483 14.4243 22.1833C10.9308 21.8121 8.07637 19.0483 7.69294 15.6658C7.13909 10.9633 11.1438 7.00331 16.0006 7.41581C19.8349 7.74581 22.9024 10.9221 22.945 14.6758C22.945 15.6658 22.7746 16.5733 22.4338 17.4396L29.6338 20.0796C30.4006 18.1408 30.7415 15.9546 30.571 13.7271C30.1024 6.42581 23.9249 0.485811 16.3841 0.0320609Z" fill="#F9FAFB"></path></svg></g></g><defs><clipPath id="SvgjsClipPath1188"><rect width="1000" height="1000" x="0" y="0" rx="300" ry="300"></rect></clipPath></defs></svg>