<svg width="354" height="90" viewBox="0 0 354 90" fill="none" xmlns="http://www.w3.org/2000/svg">
<path d="M121.061 72.9204C116.256 72.9204 112.027 71.9318 108.372 69.9545C104.718 67.9091 101.91 65.1136 99.947 61.5682C97.9845 58.0227 97.0033 54.0682 97.0033 49.7045H111.418C111.553 52.2955 112.467 54.4773 114.158 56.25C115.85 57.9545 118.151 58.8068 121.061 58.8068C123.971 58.8068 126.272 57.9205 127.964 56.1477C129.723 54.3068 130.603 51.9886 130.603 49.1932V0H145.119V49.1932C145.119 53.6932 144.138 57.75 142.175 61.3636C140.212 64.9773 137.404 67.8068 133.75 69.8523C130.163 71.8977 125.933 72.9204 121.061 72.9204Z" fill="white"/>
<path d="M178.101 72.9204C173.973 72.9204 170.319 72 167.138 70.1591C164.025 68.25 161.589 65.5909 159.83 62.1818C158.07 58.7045 157.19 54.7159 157.19 50.2159V19.4318H170.996V48.9886C170.996 52.0568 171.977 54.6818 173.94 56.8636C175.902 58.9773 178.338 60.0341 181.248 60.0341C184.226 60.0341 186.662 58.9773 188.557 56.8636C190.519 54.75 191.501 52.125 191.501 48.9886V19.4318H205.306V71.5909H194.952L192.719 66.4773H192.211C191.129 67.8409 189.335 69.2727 186.831 70.7727C184.327 72.2045 181.417 72.9204 178.101 72.9204Z" fill="white"/>
<path d="M272.192 18.1023C277.944 18.1023 282.478 20.0455 285.794 23.9318C289.11 27.8182 290.768 33.2727 290.768 40.2955V71.5909H276.963V40.8068C276.963 37.8068 276.185 35.4205 274.628 33.6477C273.139 31.875 271.245 30.9886 268.944 30.9886C266.643 30.9886 264.714 31.875 263.158 33.6477C261.669 35.4205 260.924 37.8068 260.924 40.8068V71.5909H247.119V40.8068C247.119 37.8068 246.341 35.4205 244.784 33.6477C243.296 31.875 241.401 30.9886 239.1 30.9886C236.799 30.9886 234.87 31.875 233.314 33.6477C231.825 35.4205 231.081 37.8068 231.081 40.8068V71.5909H217.275V19.4318H227.629L229.863 24.5455H230.37C231.318 23.1818 232.874 21.7841 235.04 20.3523C237.273 18.8523 239.878 18.1023 242.856 18.1023C246.375 18.1023 249.319 18.8523 251.687 20.3523C254.056 21.8523 255.883 23.5568 257.169 25.4659C258.59 23.5568 260.654 21.8523 263.361 20.3523C266.068 18.8523 269.011 18.1023 272.192 18.1023Z" fill="white"/>
<path d="M302.23 90V19.4318H312.584L314.817 24.5455H315.325C316.475 23.1136 318.336 21.6818 320.908 20.25C323.479 18.8182 326.525 18.1023 330.044 18.1023C334.239 18.1023 338.165 19.2955 341.819 21.6818C345.541 24.0682 348.485 27.375 350.65 31.6023C352.883 35.7614 354 40.3977 354 45.5114C354 50.625 352.883 55.2954 350.65 59.5227C348.485 63.6818 345.541 66.9545 341.819 69.3409C338.165 71.7273 334.239 72.9204 330.044 72.9204C327.811 72.9204 325.713 72.5454 323.75 71.7954C321.855 71.1136 320.265 70.3296 318.979 69.4432C317.761 68.5568 316.949 67.7727 316.543 67.0909H316.035V90H302.23ZM328.115 60.0341C330.281 60.0341 332.277 59.4205 334.104 58.1932C335.931 56.9659 337.386 55.2614 338.469 53.0795C339.619 50.8295 340.195 48.3068 340.195 45.5114C340.195 42.7159 339.619 40.2273 338.469 38.0455C337.386 35.7955 335.931 34.0568 334.104 32.8295C332.277 31.6023 330.281 30.9886 328.115 30.9886C325.95 30.9886 323.953 31.6023 322.126 32.8295C320.299 34.0568 318.81 35.7955 317.66 38.0455C316.577 40.2273 316.035 42.7159 316.035 45.5114C316.035 48.3068 316.577 50.8295 317.66 53.0795C318.81 55.2614 320.299 56.9659 322.126 58.1932C323.953 59.4205 325.95 60.0341 328.115 60.0341Z" fill="white"/>
<path fill-rule="evenodd" clip-rule="evenodd" d="M31.1287 0.792624C33.9311 2.42431 34.8912 6.03812 33.2733 8.86428L10.9341 47.8858C9.31619 50.712 5.73285 51.6803 2.93051 50.0486C0.128162 48.4169 -0.831991 44.8031 0.785943 41.9769L23.1251 2.95542C24.7431 0.129252 28.3264 -0.839063 31.1287 0.792624Z" fill="white"/>
<path fill-rule="evenodd" clip-rule="evenodd" d="M56.8247 1.44766C59.627 3.07935 60.5872 6.69315 58.9692 9.51932L36.6301 48.5408C35.0121 51.367 31.4288 52.3353 28.6265 50.7036C25.8241 49.0719 24.864 45.4581 26.4819 42.632L48.8211 3.61046C50.439 0.784291 54.0223 -0.184025 56.8247 1.44766Z" fill="white"/>
<path fill-rule="evenodd" clip-rule="evenodd" d="M69.9387 22.8621C72.7411 24.4938 73.7012 28.1076 72.0833 30.9337L49.7441 69.9553C48.1262 72.7814 44.5428 73.7497 41.7405 72.118C38.9382 70.4864 37.978 66.8726 39.5959 64.0464L61.9351 25.0249C63.5531 22.1987 67.1364 21.2304 69.9387 22.8621Z" fill="white"/>
</svg>
