<svg width="508" height="185" viewBox="0 0 508 185" fill="none" xmlns="http://www.w3.org/2000/svg">
  <g clip-path="url(#clip0_1_39)">
    <path
      d="M244.32 57.46C250.24 57.46 255.37 58.74 259.72 61.29C264.07 63.84 267.4 67.41 269.72 71.99C272.04 76.57 273.2 81.88 273.2 87.91C273.2 93.94 271.89 99.52 269.28 104.14C266.67 108.75 263.16 112.27 258.75 114.71C254.34 117.15 249.5 118.36 244.22 118.36H222.03V57.46H244.32ZM243.98 107.05C249.78 107.05 254.01 105.19 256.68 101.48C259.35 97.77 260.68 93.22 260.68 87.82C260.68 75.12 254.85 68.77 243.19 68.77H234.58V107.05H243.98Z"
      fill="#61CAFF" />
    <path
      d="M288.09 100.27C288.38 102.71 289.53 104.85 291.53 106.71C293.53 108.57 295.98 109.49 298.88 109.49C301.43 109.49 303.5 108.9 305.1 107.71C306.69 106.52 307.78 105.2 308.36 103.75L318.63 106.79C317.18 110.68 314.82 113.78 311.54 116.1C308.26 118.42 304.04 119.58 298.88 119.58C294.82 119.58 291.08 118.61 287.66 116.67C284.24 114.73 281.51 112 279.48 108.49C277.45 104.98 276.44 100.96 276.44 96.44C276.44 91.92 277.43 88.06 279.4 84.52C281.37 80.98 284.07 78.23 287.49 76.25C290.91 74.28 294.68 73.29 298.8 73.29C302.92 73.29 306.72 74.26 309.85 76.21C312.98 78.15 315.39 80.84 317.07 84.26C318.75 87.68 319.59 91.63 319.59 96.09V100.27H288.09ZM307.75 88.22C307.05 86.86 305.97 85.67 304.49 84.65C303.01 83.64 301.14 83.13 298.88 83.13C295.86 83.13 293.44 83.97 291.62 85.65C289.79 87.33 288.65 89.39 288.18 91.83H308.89C308.83 90.79 308.45 89.58 307.76 88.22H307.75Z"
      fill="#61CAFF" />
    <path
      d="M364.65 74.51L348.12 118.36H335.24L318.71 74.51H331.41L341.68 104.18L351.95 74.51H364.65Z"
      fill="#61CAFF" />
    <path
      d="M367.17 57.46H379.35V78.86C382.54 75.15 386.63 73.29 391.62 73.29C396.95 73.29 400.94 74.9 403.58 78.12C406.22 81.34 407.54 86.28 407.54 92.95V118.35H395.27V94.43C395.27 91.01 394.6 88.56 393.27 87.08C391.94 85.6 390.05 84.86 387.62 84.86C385.19 84.86 383.12 85.7 381.62 87.38C380.11 89.06 379.36 91.56 379.36 94.86V118.35H367.18V57.45L367.17 57.46Z"
      fill="#61CAFF" />
    <path
      d="M454.34 118.36H444.25L442.51 113.4C439.32 117.52 435.11 119.58 429.89 119.58C424.67 119.58 420.46 117.97 417.8 114.75C415.13 111.53 413.8 106.59 413.8 99.92V74.52H426.15V98.62C426.15 104.94 428.67 108.1 433.72 108.1C436.27 108.1 438.29 107.26 439.77 105.58C441.25 103.9 441.99 101.4 441.99 98.1V74.52H454.34V118.37V118.36Z"
      fill="#61CAFF" />
    <path
      d="M477.57 117.75C475.36 116.53 473.62 115.11 472.35 113.49L470.7 118.36H460.61V57.46H472.96V78.78C474.06 77.33 475.73 76.05 477.96 74.95C480.19 73.85 482.79 73.3 485.75 73.3C489.64 73.3 493.2 74.29 496.45 76.26C499.7 78.23 502.28 80.99 504.19 84.53C506.1 88.07 507.06 92.04 507.06 96.45C507.06 100.86 506.09 104.83 504.14 108.37C502.2 111.91 499.59 114.66 496.31 116.63C493.03 118.6 489.45 119.59 485.57 119.59C482.44 119.59 479.77 118.98 477.57 117.76V117.75ZM491.53 105.05C493.65 102.79 494.7 99.92 494.7 96.44C494.7 92.96 493.64 90.16 491.53 87.87C489.41 85.58 486.82 84.43 483.74 84.43C480.66 84.43 478.03 85.55 476 87.78C473.97 90.01 472.96 92.9 472.96 96.44C472.96 99.98 473.97 102.79 476 105.05C478.03 107.31 480.61 108.44 483.74 108.44C486.87 108.44 489.41 107.31 491.53 105.05Z"
      fill="#61CAFF" />
    <path
      d="M154.8 11.27C158.8 10.66 162.76 10.77 166.57 12.35C166.91 12.49 167.28 12.55 168 12.75C163.29 7.19 157.94 3.15 151.62 0C151.37 0.64 151.19 0.97 151.1 1.33C150.66 2.95 150.22 4.58 149.83 6.21C149.26 8.6 152.34 11.65 154.8 11.27Z"
      fill="white" />
    <path
      d="M197.05 46C193.03 42.98 190.31 39.1 188.35 34.49C185.31 27.38 180.13 22.19 173.18 18.79C166.9 15.72 160.4 14.24 153.38 15.54C152.56 15.69 151.31 15.13 150.68 14.48C145.52 9.25 139.57 5.21 132.77 2.25C132.6 2.59 132.37 2.89 132.28 3.23C129.97 11.17 129.45 19.19 131.22 27.31C131.35 27.9 131.31 28.66 131.03 29.18C128.84 33.44 126.7 37.74 124.39 41.93C116.57 56.08 106.94 59.18 83.76 59.18C60.58 59.18 34.86 91.37 21.1 105.78L17.55 109.33C16.21 110.67 16.14 112.94 17.55 114.22C18.18 114.79 18.97 115.07 19.76 115.07C20.6 115.07 21.44 114.75 22.08 114.11L34.27 101.92L47.45 88.91C52.08 84.71 55.76 83.45 61.93 88.61C63.35 89.79 63.43 91.95 62.13 93.26L59.59 95.8C56.18 99.21 56.18 104.73 59.57 108.15C53.12 110.84 44.43 118.73 41.16 128.82C39.26 134.69 36.14 141.48 33.24 146.8C31.77 149.49 34.31 152.12 37.28 151.37C41.31 150.35 46.37 149.9 54.55 147.28C63.57 144.39 68.3 139.81 71.6 136.69C73.02 135.35 71.52 133.03 69.72 133.79C61.23 137.42 49.8 140.76 52.69 131.7C56.62 119.34 63.6 114.85 65.32 113.9L69.44 118.02C67.07 119.82 64.49 123.74 62.75 126.72C62.01 127.98 63.27 129.47 64.64 128.96C66.18 128.38 67.81 127.81 68.77 127.6C73.79 126.47 75.13 124.85 75.48 124.06L79.24 127.82C82.25 130.83 86.91 131.18 90.31 128.88C96.71 125.29 102.41 115.96 111.6 112.14C131.14 103.99 148.51 103.49 155.03 78.22C157.27 69.54 164.91 65.05 173.5 62.9C177.08 62.02 180.77 61.55 184.3 60.53C190.81 58.64 195.6 54.74 197.55 47.99C197.72 47.4 197.5 46.31 197.06 45.99L197.05 46ZM181.44 53.81C177.99 53.79 174.47 53.32 171.1 52.55C165.58 51.27 160.07 50.45 154.41 51.07C152.35 51.3 151.49 50.08 150.82 48.48C147.94 41.59 151.21 32.86 158.03 29.2C165.4 25.24 174.64 27.31 178.59 34.66C181.58 40.21 185.68 44.36 190.6 47.97C190.9 48.18 191.16 48.46 191.59 48.83C189.01 52.37 185.43 53.84 181.45 53.82L181.44 53.81Z"
      fill="white" />
    <path
      d="M23.36 85.15C24.2 85.15 25.04 84.83 25.68 84.19L54.94 54.93C56.22 53.65 56.22 51.56 54.94 50.28C53.66 49 51.57 49 50.29 50.28L21.03 79.54C19.75 80.82 19.75 82.91 21.03 84.19C21.67 84.83 22.51 85.15 23.35 85.15H23.36Z"
      fill="white" />
    <path
      d="M8.91001 99.6C9.75001 99.6 10.59 99.28 11.23 98.64L15.48 94.39C16.76 93.11 16.76 91.02 15.48 89.74C14.2 88.46 12.11 88.46 10.83 89.74L6.58001 93.99C5.30001 95.27 5.30001 97.36 6.58001 98.64C7.22001 99.28 8.06001 99.6 8.90001 99.6H8.91001Z"
      fill="white" />
    <path
      d="M159.75 98.63L151.25 107.13C149.97 108.41 149.97 110.5 151.25 111.78C151.89 112.42 152.73 112.74 153.57 112.74C154.41 112.74 155.25 112.42 155.89 111.78L164.39 103.28C165.67 102 165.67 99.91 164.39 98.63C163.11 97.35 161.02 97.35 159.74 98.63H159.75Z"
      fill="white" />
    <path
      d="M3.33001 152.23C4.17001 152.23 5.01001 151.91 5.65001 151.27L38.62 118.3C39.9 117.02 39.9 114.93 38.62 113.65C37.34 112.37 35.25 112.37 33.97 113.65L1.00001 146.61C-0.27999 147.89 -0.27999 149.98 1.00001 151.26C1.64001 151.9 2.48001 152.22 3.32001 152.22L3.33001 152.23Z"
      fill="white" />
    <path
      d="M139.06 119.32L106.17 152.21C104.89 153.49 104.89 155.58 106.17 156.86C106.81 157.5 107.65 157.82 108.49 157.82C109.33 157.82 110.17 157.5 110.81 156.86L143.7 123.97C144.98 122.69 144.98 120.6 143.7 119.32C142.42 118.04 140.33 118.04 139.05 119.32H139.06Z"
      fill="white" />
    <path
      d="M15.08 164.38L0.97001 178.49C-0.30999 179.77 -0.30999 181.86 0.97001 183.14C1.61001 183.78 2.45001 184.1 3.29001 184.1C4.13001 184.1 4.97001 183.78 5.61001 183.14L19.72 169.03C21 167.75 21 165.66 19.72 164.38C18.44 163.1 16.35 163.1 15.07 164.38H15.08Z"
      fill="white" />
    <path
      d="M104.25 132.48C102.96 131.2 100.88 131.2 99.6 132.48L66.78 165.4C65.5 166.69 65.5 168.77 66.78 170.05C67.42 170.69 68.26 171.01 69.1 171.01C69.94 171.01 70.79 170.69 71.43 170.04L104.25 137.12C105.53 135.83 105.53 133.75 104.25 132.47V132.48Z"
      fill="white" />
    <path
      d="M105.22 46.03L108.77 36.43L118.37 32.88L108.77 29.33L105.22 19.73L101.67 29.33L92.07 32.88L101.67 36.43L105.22 46.03Z"
      fill="white" />
    <path
      d="M177.55 78.91L175.78 83.71L170.98 85.48L175.78 87.26L177.55 92.06L179.33 87.26L184.13 85.48L179.33 83.71L177.55 78.91Z"
      fill="white" />
    <path
      d="M39.46 164.44L36.8 171.64L29.6 174.31L36.8 176.97L39.46 184.17L42.13 176.97L49.33 174.31L42.13 171.64L39.46 164.44Z"
      fill="white" />
    <path
      d="M171.29 42.81C173.107 42.81 174.58 41.337 174.58 39.52C174.58 37.703 173.107 36.23 171.29 36.23C169.473 36.23 168 37.703 168 39.52C168 41.337 169.473 42.81 171.29 42.81Z"
      fill="white" />
  </g>
  <defs>
    <clipPath id="clip0_1_39">
      <rect width="507.06" height="184.17" fill="white" />
    </clipPath>
  </defs>
</svg>