<svg width="507" height="80" viewBox="0 0 507 80" fill="none" xmlns="http://www.w3.org/2000/svg">
  <g clip-path="url(#clip0_37_3)">
    <path
      d="M126.36 16.58C113.65 16.58 103.32 26.92 103.32 39.62C103.32 52.32 113.66 62.66 126.36 62.66C130.49 62.66 134.36 61.56 137.71 59.66V79.99L149.4 76.09V39.62C149.4 26.92 139.06 16.58 126.36 16.58V16.58ZM126.36 50.97C120.1 50.97 115.01 45.88 115.01 39.62C115.01 33.36 120.1 28.27 126.36 28.27C132.62 28.27 137.71 33.36 137.71 39.62C137.71 45.88 132.62 50.97 126.36 50.97V50.97Z"
      fill="white" />
    <path
      d="M222.16 16.73C209.45 16.73 199.12 27.07 199.12 39.77C199.12 52.47 209.46 62.81 222.16 62.81C228.27 62.81 234.02 60.45 238.35 56.16L230.12 47.85C227.99 49.96 225.17 51.12 222.16 51.12C218.04 51.12 214.42 48.91 212.43 45.62H245.2V39.77C245.2 27.06 234.86 16.73 222.16 16.73V16.73ZM212.43 33.93C214.42 30.63 218.03 28.42 222.16 28.42C226.29 28.42 229.9 30.63 231.89 33.93H212.44H212.43Z"
      fill="white" />
    <path
      d="M399.04 16.81C386.33 16.81 376 27.15 376 39.85C376 52.55 386.34 62.89 399.04 62.89C405.15 62.89 410.9 60.53 415.23 56.24L407 47.93C404.87 50.04 402.05 51.2 399.04 51.2C394.92 51.2 391.3 48.99 389.31 45.7H422.08V39.85C422.08 27.14 411.74 16.81 399.04 16.81V16.81ZM389.31 34.01C391.3 30.71 394.91 28.5 399.04 28.5C403.17 28.5 406.78 30.71 408.77 34.01H389.32H389.31Z"
      fill="white" />
    <path
      d="M183.17 16.6C183.17 16.6 183.21 42.35 183.21 42.71C183.21 42.86 183.21 43.01 183.19 43.16V43.29C182.89 47.68 179.2 51.11 174.8 51.11C170.16 51.11 166.39 47.34 166.39 42.7V16.6H154.7V42.72C154.7 53.8 163.72 62.82 174.8 62.82C185.88 62.82 194.11 54.62 194.84 44.15C194.88 43.7 194.9 43.24 194.9 42.72C194.9 42.39 194.86 16.59 194.86 16.59L183.17 16.61V16.6Z"
      fill="white" />
    <path
      d="M250.81 39.43V62.81H262.5V39.43C262.5 33.17 267.59 28.08 273.85 28.08V16.39C261.14 16.39 250.81 26.73 250.81 39.43V39.43Z"
      fill="white" />
    <path
      d="M302.35 43.2L291.35 16.59L278.75 16.64L296.33 59.23L288.52 80H301.01L324.82 16.64L312.36 16.59L302.35 43.2Z"
      fill="white" />
    <path
      d="M359.49 20.01C356.06 17.98 352.07 16.81 347.8 16.81C335.1 16.81 324.76 27.15 324.76 39.85C324.76 52.55 335.1 62.89 347.8 62.89C360.5 62.89 370.84 52.55 370.84 39.85C370.84 39.29 371.18 3.89 371.18 3.89L359.49 0V20.01ZM347.8 51.21C341.54 51.21 336.45 46.12 336.45 39.86C336.45 33.6 341.54 28.51 347.8 28.51C354.06 28.51 359.15 33.6 359.15 39.86C359.15 46.12 354.06 51.21 347.8 51.21Z"
      fill="white" />
    <path
      d="M489.14 35.14L505.01 16.6H489.91L475.66 32.79V0H463.97V62.89H475.66V50.53L481.11 44.32L492.81 62.92H506.61L489.14 35.14Z"
      fill="white" />
    <path
      d="M444.14 33.84H440.56C439 33.84 437.72 32.56 437.72 31C437.72 29.44 438.99 28.17 440.56 28.17H457.22V16.47H440.56C432.55 16.47 426.03 22.99 426.03 30.99C426.03 38.99 432.55 45.52 440.54 45.52H444.12C445.68 45.52 446.94 46.8 446.94 48.36C446.94 49.92 445.67 51.2 444.12 51.2H427.3V62.89H444.12C452.12 62.89 458.64 56.38 458.64 48.37C458.64 40.36 452.13 33.84 444.14 33.84Z"
      fill="white" />
    <path
      d="M71.98 66.97C71.98 62.005 67.955 57.98 62.99 57.98C58.025 57.98 54 62.005 54 66.97C54 71.935 58.025 75.96 62.99 75.96C67.955 75.96 71.98 71.935 71.98 66.97Z"
      fill="white" />
    <path
      d="M38.45 4.08C16.76 2.65 -1.14 20.41 0.0600038 42.06C1.05 59.85 15.27 74.46 33.04 75.88C38.57 76.32 43.88 75.52 48.69 73.71L42.33 56.83C39.77 57.8 36.91 58.19 33.95 57.86C25.72 56.95 19.06 50.3 18.14 42.07C16.87 30.65 26.28 21.09 37.65 22.1C46.69 22.9 53.83 30.63 53.98 39.7C54.02 42.07 53.6 44.32 52.8 46.39L69.67 52.81C71.46 48.07 72.3 42.85 71.91 37.38C70.65 19.62 56.22 5.25 38.45 4.08V4.08Z"
      fill="white" />
  </g>
  <defs>
    <clipPath id="clip0_37_3">
      <rect width="506.61" height="80" fill="white" />
    </clipPath>
  </defs>
</svg>